<svg width="20" height="20" viewBox="0 0 20 20" fill="none" xmlns="http://www.w3.org/2000/svg">
<g clip-path="url(#clip0_7_757)">
<path d="M12.1133 18.0721C12.145 18.151 12.2 18.2184 12.2711 18.2651C12.3421 18.3118 12.4257 18.3357 12.5107 18.3335C12.5957 18.3313 12.678 18.3032 12.7465 18.2529C12.8151 18.2026 12.8666 18.1325 12.8942 18.0521L18.3108 2.21879C18.3375 2.14495 18.3426 2.06504 18.3255 1.98842C18.3084 1.91179 18.2699 1.84161 18.2144 1.7861C18.1588 1.73059 18.0887 1.69203 18.012 1.67495C17.9354 1.65786 17.8555 1.66295 17.7817 1.68962L1.94834 7.10629C1.86792 7.13387 1.79787 7.18539 1.74757 7.25393C1.69728 7.32247 1.66915 7.40476 1.66698 7.48975C1.6648 7.57474 1.68867 7.65836 1.73539 7.72939C1.78211 7.80042 1.84944 7.85546 1.92834 7.88712L8.53668 10.5371C8.74558 10.6208 8.93539 10.7458 9.09465 10.9048C9.25391 11.0638 9.37933 11.2534 9.46334 11.4621L12.1133 18.0721Z" stroke="black" stroke-width="2" stroke-linecap="round" stroke-linejoin="round"/>
<path d="M18.2117 1.78906L9.095 10.9049" stroke="black" stroke-width="2" stroke-linecap="round" stroke-linejoin="round"/>
</g>
<defs>
<clipPath id="clip0_7_757">
<rect width="20" height="20" fill="white"/>
</clipPath>
</defs>
</svg>
