<svg width="20" height="20" viewBox="0 0 20 20" fill="none" xmlns="http://www.w3.org/2000/svg">
<g clip-path="url(#clip0_7_353)">
<path d="M18.1675 8.33357C18.5481 10.2013 18.2769 12.1431 17.3991 13.8351C16.5213 15.527 15.0899 16.8669 13.3438 17.6313C11.5976 18.3957 9.64221 18.5384 7.8036 18.0355C5.965 17.5327 4.35435 16.4147 3.24025 14.8681C2.12616 13.3214 1.57596 11.4396 1.68141 9.53639C1.78686 7.63318 2.54159 5.82364 3.81973 4.40954C5.09787 2.99545 6.82217 2.06226 8.70508 1.76561C10.588 1.46897 12.5157 1.82679 14.1667 2.7794" stroke="black" stroke-width="2" stroke-linecap="round" stroke-linejoin="round"/>
<path d="M7.5 9.16683L10 11.6668L18.3333 3.3335" stroke="black" stroke-width="2" stroke-linecap="round" stroke-linejoin="round"/>
</g>
<defs>
<clipPath id="clip0_7_353">
<rect width="20" height="20" fill="white"/>
</clipPath>
</defs>
</svg>
