<svg width="20" height="20" viewBox="0 0 20 20" fill="none" xmlns="http://www.w3.org/2000/svg">
<path d="M11.6667 15.0002V5.00016C11.6667 4.55814 11.4911 4.13421 11.1785 3.82165C10.866 3.50909 10.442 3.3335 10 3.3335H3.33335C2.89133 3.3335 2.4674 3.50909 2.15484 3.82165C1.84228 4.13421 1.66669 4.55814 1.66669 5.00016V14.1668C1.66669 14.3878 1.75448 14.5998 1.91076 14.7561C2.06704 14.9124 2.27901 15.0002 2.50002 15.0002H4.16669" stroke="black" stroke-width="2" stroke-linecap="round" stroke-linejoin="round"/>
<path d="M12.5 15H7.5" stroke="black" stroke-width="2" stroke-linecap="round" stroke-linejoin="round"/>
<path d="M15.8334 14.9998H17.5C17.721 14.9998 17.933 14.912 18.0893 14.7558C18.2456 14.5995 18.3334 14.3875 18.3334 14.1665V11.1248C18.333 10.9357 18.2684 10.7523 18.15 10.6048L15.25 6.97984C15.1721 6.88224 15.0732 6.8034 14.9607 6.74917C14.8482 6.69493 14.7249 6.66668 14.6 6.6665H11.6667" stroke="black" stroke-width="2" stroke-linecap="round" stroke-linejoin="round"/>
<path d="M14.1667 16.6668C15.0871 16.6668 15.8333 15.9206 15.8333 15.0002C15.8333 14.0797 15.0871 13.3335 14.1667 13.3335C13.2462 13.3335 12.5 14.0797 12.5 15.0002C12.5 15.9206 13.2462 16.6668 14.1667 16.6668Z" stroke="black" stroke-width="2" stroke-linecap="round" stroke-linejoin="round"/>
<path d="M5.83335 16.6668C6.75383 16.6668 7.50002 15.9206 7.50002 15.0002C7.50002 14.0797 6.75383 13.3335 5.83335 13.3335C4.91288 13.3335 4.16669 14.0797 4.16669 15.0002C4.16669 15.9206 4.91288 16.6668 5.83335 16.6668Z" stroke="black" stroke-width="2" stroke-linecap="round" stroke-linejoin="round"/>
</svg>
