<svg width="32" height="32" viewBox="0 0 32 32" fill="none" xmlns="http://www.w3.org/2000/svg">
<path d="M14.6667 26.667C12.3254 26.6741 10.067 25.801 8.33937 24.2209C6.61172 22.6408 5.54103 20.4691 5.33966 18.1365C5.13829 15.8039 5.82093 13.4808 7.25221 11.628C8.68349 9.77516 10.7589 8.52793 13.0667 8.13366C20.6667 6.66699 22.6667 5.97366 25.3333 2.66699C26.6667 5.33366 28 8.24033 28 13.3337C28 20.667 21.6267 26.667 14.6667 26.667Z" stroke="black" stroke-width="2" stroke-linecap="round" stroke-linejoin="round"/>
<path d="M2.66669 28C2.66669 24 5.13335 20.8533 9.44002 20C12.6667 19.36 16 17.3333 17.3334 16" stroke="black" stroke-width="2" stroke-linecap="round" stroke-linejoin="round"/>
</svg>
