<svg width="20" height="20" viewBox="0 0 20 20" fill="none" xmlns="http://www.w3.org/2000/svg">
<path d="M8.33334 9.16699V14.167" stroke="black" stroke-width="2" stroke-linecap="round" stroke-linejoin="round"/>
<path d="M11.6667 9.16699V14.167" stroke="black" stroke-width="2" stroke-linecap="round" stroke-linejoin="round"/>
<path d="M15.8333 5V16.6667C15.8333 17.1087 15.6577 17.5326 15.3452 17.8452C15.0326 18.1577 14.6087 18.3333 14.1667 18.3333H5.83332C5.3913 18.3333 4.96737 18.1577 4.65481 17.8452C4.34225 17.5326 4.16666 17.1087 4.16666 16.6667V5" stroke="black" stroke-width="2" stroke-linecap="round" stroke-linejoin="round"/>
<path d="M2.5 5H17.5" stroke="black" stroke-width="2" stroke-linecap="round" stroke-linejoin="round"/>
<path d="M6.66666 5.00033V3.33366C6.66666 2.89163 6.84225 2.46771 7.15481 2.15515C7.46737 1.84259 7.8913 1.66699 8.33332 1.66699H11.6667C12.1087 1.66699 12.5326 1.84259 12.8452 2.15515C13.1577 2.46771 13.3333 2.89163 13.3333 3.33366V5.00033" stroke="black" stroke-width="2" stroke-linecap="round" stroke-linejoin="round"/>
</svg>
